<svg xmlns="http://www.w3.org/2000/svg" version="1.1" xmlns:xlink="http://www.w3.org/1999/xlink" xmlns:svgjs="http://svgjs.dev/svgjs" width="2000" height="2250" viewBox="0 0 2000 2250"><g transform="matrix(1,0,0,1,0.000012850225743932242,0)"><svg viewBox="0 0 320 360" data-background-color="#ffffff" preserveAspectRatio="xMidYMid meet" height="2250" width="2000" xmlns="http://www.w3.org/2000/svg" xmlns:xlink="http://www.w3.org/1999/xlink"><g id="tight-bounds" transform="matrix(1,0,0,1,0.0000020560361235766322,0)"><svg viewBox="0 0 320 360" height="360" width="320"><g><svg></svg></g><g><svg viewBox="0 0 320 360" height="360" width="320"><g><path transform="translate(-15.58119,4.24857) scale(3.51065,3.51065)" d="M51.5 85.2c-0.4-0.5-0.8-0.2-0.8-0.5-2.4 0.6-6.9-1-8.8-0.8 0.4-0.6-0.6-0.5-0.6-0.9-0.4 0.6-0.8 0-1.4 0.2-0.6-1.5-3-0.4-3.3-2.3-1.4 0-1.9-0.8-3.3-1.6 0.1-0.1 0.2-0.1 0.3-0.2-0.7-0.1-0.7-0.5-1.3-0.5l0.2-0.4c-1.1-0.2-1.5-1.9-3.1-2.5-0.5-0.1-1.6-1.8-2.2-2.2-0.3-0.2-0.8-0.2-0.1-0.3-0.1-0.1-0.1-0.3 0-0.4-0.7-0.2-0.8-0.8-1.7-1.1-0.1-0.3 0.2-0.5 0-0.7-0.2-0.1-0.5 0.1-0.7 0-0.1 1.8 1.9 2 2.5 3.5-0.2-0.2-0.5-0.8-0.7-0.4-0.1 0.3 0.8 1.4 0.8 0.8-0.3 0.2-0.4-0.3-0.2-0.4 0.3 0.5 0.9 0.4 0.9 0.8-0.3 0.3-0.7-0.3-0.6 0.2 0.9 0.5 0.8 1 1.3 1.7-0.4-0.5-0.5 0.4-0.9 0-0.1-1.5-1.8-1.2-1.8-2.7-0.2-0.5-0.4-0.1-0.7-0.3 0.4-0.4-1.2-1.8-1.2-1.3-0.5-0.6-0.2-0.8-0.3-1.2-0.4-0.1-0.1 0.4-0.4 0.1 0.4-0.7-0.5-1.6-1.1-2.3l0.4-0.2c-0.7-0.4-0.8-1.2-1.3-2.1-0.6 0.9 1.2 2.9 0.9 3.3 0 0.1 0.7 0.9 0.9 1.3 0.8 1.4 1.4 3.1 2.5 3.9-0.2-0.1-0.1-0.7 0.2-0.4 0 0.3-0.2 0.6-0.2 0.9 0.6 0.6 1.1 1.1 1.7 1.7-1.3-0.8-2.6-1.6-3.5-2.8 0.5-0.1 1 0.8 1.4 0.7-1-0.8-0.7-1.1-1.1-2.1-0.4-0.3 0.1 0.4-0.3 0.5-1.3-1.2-2.3-1.9-2.9-3 0.1-0.1 0.2-0.2 0.2-0.4-0.1-0.1-0.1-0.1-0.2-0.2 0.6 0.6 0.8 1.1 1.5 1.2-0.3-0.3 0-0.4-0.4-0.7-0.2-0.4-0.5 0.2-0.7-0.1 0.2-0.3 0-0.7 0-1-0.2 0-0.4 0-0.5-0.3-0.2-0.1-0.3 0-0.4 0.2-0.1-0.1-0.1-0.3-0.2-0.4v-0.1c-0.1-0.1-0.2-0.3-0.3-0.4-0.8-2.1-1.3-4.9-2.4-6.7 0.3-1.2-0.2-3.6-0.5-4.2 0.3-0.5 0.1-2.8-0.1-3.2-0.5 0.2 0.1 1.3-0.4 1.6-0.5-2.2 0.3-4.7 0.1-6.7 0.2 0 0.4 0 0.4-0.1-0.3-0.3 0.2-0.9 0.1-1.6 0.4-0.9-0.9 1.3-0.9 2.2-0.1 0.2-0.5 0-0.4 0.5 0 0.7 0.2 2.1-0.2 3.1-0.2 0-0.2-0.2-0.4-0.1-0.1 0.5-0.2 1.1-0.3 1.6-0.1-0.2-0.2-0.5-0.2-0.6-0.5-2.5 0-5.4-0.2-7.5 0.4 0 0.4-0.6 0.7-0.8-0.1 0.8-0.3 1.8 0.2 2 0.4-3.9 1.2-8.2 3-12.4 1.3-3.1 3.2-6.2 5.5-8.7 0.2 0.3-0.1 1 0 1.3 2-2.1 3.3-4.6 5.5-6 0.1 0.5-0.9 0.9-0.9 1.3 0.9-0.9 1.2-0.6 2.2-0.9 0.3-0.4-0.4 0-0.5-0.4 0.6-0.4 1-0.9 1.4-1.2 0 0.1-0.1 0.1-0.1 0.2 1.1-0.3 1.2-0.9 2-1.1-0.1-0.1-0.3-0.2-0.6-0.1 0.2-0.1 0.5-0.3 0.8-0.4-0.1 0-0.1 0.1-0.2 0.1 0.6-0.3 0.1 0.1 0.1 0.3 0.1 0 0.2-0.1 0.2-0.1-0.6 0.4-1 0.6-1.2 1.3 0.3-0.2 0.4 0 0.8-0.3 0.4-0.2-0.1-0.5 0.2-0.7 0.3 0.2 0.7 0.1 1 0.1 0-0.2 0.1-0.4 0.3-0.5 0.1-0.2 0-0.3-0.1-0.3 0.1-0.1 0.2-0.1 0.4-0.2 0 0 0.1 0 0.1 0.1 1.7-0.8 3.6-1.5 5.4-2.1 1.1-0.1 2.5-0.1 3.1-0.8-0.2 0-0.4 0.1-0.5 0 0.1 0 0.3-0.1 0.4-0.1 0.2 0.2 0.5 0 0.2 0.4 0.1 0 0.1 0 0.2-0.1 0 0.1 0 0.1 0.1 0.2 0.1 0 0.2-0.1 0.3-0.3 0.1 0 0.2 0 0.3-0.1l-0.1 0.1c0.8-0.2 1.5-0.1 2.6-0.3 0-0.1 0-0.2 0-0.3 0.2 0 0.3-0.1 0.5-0.1v0.1c0.4-0.2 0.8 0.2 0.8 0 0.1 0 0.1 0 0.2 0 0 0.2-0.1 0.3-0.1 0.4 0.5 0 0.8 0 1-0.3-0.1-0.1-0.2-0.1-0.3-0.1 0.2 0 0.4-0.1 0.6-0.2 0.3 0.1 0.4 0.2 0.4 0.6 0.5-0.9 2.1 0.2 2.8 0 0.3 0 0.2-0.4 0.4-0.6 0.1 0 0.2 0 0.3 0 0.5 0.4 1.2 0.8 2.1 0.9-0.8-0.2 0.1-0.3 0.2-0.4-0.2 0-0.2-0.1-0.2-0.2 0.3 0 0.6 0.1 0.9 0.1 0 0.2 0.1 0.3 0.3 0.3 0.2 0 0.2-0.1 0.2-0.3 0.3 0 0.5 0 0.8 0.1-0.1 0.4 0.5 0.5 0.7 0.8-0.8-0.2-1.7-0.5-2 0 3.2 0.7 6.7 1.7 10.1 3.4 0 0 0 0 0 0.1h0.1c0.6 0.3 1.2 0.6 1.8 0.9 0.4 0.2 0.7 0.4 1.1 0.7 0 0.1 0 0.2 0.2 0.2h0.1c0.4 0.3 0.8 0.5 1.2 0.8 0.4 0.6 0.8 1.4 1.5 1.2 1.5 2.3 3.1 3.2 4.4 5.6 0.1-0.4 0.4 0.9 0.9 1-0.8-0.1 0.5 0.5-0.3 0.4 0.7 0.7 0.9 1 1 1.8-0.2-0.4-0.3-0.5-0.4-0.1-0.1 0.6 0.7-0.1 1 0.5-0.6 0-0.4 0.4-0.3 0.9 0.3-0.3 0.2-0.6 0.5-0.5 0.4 0.4-0.2 0.5-0.1 0.8 0.3-0.4 0.4-0.2 0.8 0-0.5 0.1 0.3 0.8-0.3 0.5 0.4 0.5 0.5 0.8 0.3 1.3-0.4-0.6-0.1-1-0.7-0.9 1.2 1 0.6 3.3 2 3.5-0.9 0.2 0 0.6-0.5 0.7 0.6 0.2 0.3 1 1 1.2-0.1 0.5-0.3 0.8-0.4 1.3 0.3 0.4 0.4 1.2 0.9 1.3-0.3 0.3-0.1 1.1-0.4 1.4 0.4-0.2 0.6-0.2 0.9 0.2-0.5 0.4-0.1 0.8-0.4 0.9 0.9 2.3-0.2 7 0.3 8.8-0.6-0.3-0.4 0.7-0.8 0.7 0.7 0.3 0.1 0.8 0.4 1.3-1.4 0.8 0 3-1.9 3.5 0.2 1.4-0.6 2-1.2 3.5-0.1-0.1-0.1-0.2-0.2-0.3-0.1 0.7-0.5 0.8-0.3 1.4l-0.4-0.2c0 1.1-1.7 1.7-2.1 3.4-0.1 0.5-1.6 1.8-2 2.5-0.2 0.3-0.1 0.8-0.3 0.1-0.1 0.1-0.3 0.1-0.4 0.1-0.1 0.7-0.7 0.9-0.9 1.8-0.2 0.1-0.5-0.2-0.7 0.1 0 0.2 0.2 0.5 0.1 0.7 1.8-0.1 1.8-2.2 3.2-2.9-0.1 0.3-0.7 0.6-0.3 0.8 0.3 0 1.2-1 0.7-0.9 0.3 0.2-0.3 0.4-0.4 0.3 0.5-0.4 0.3-0.9 0.7-1 0.3 0.2-0.3 0.7 0.3 0.6 0.4-0.9 0.9-1 1.5-1.5-0.4 0.4 0.5 0.5 0.1 0.9-1.5 0.3-1 2-2.5 2.2-0.4 0.3-0.1 0.4-0.2 0.7-0.5-0.3-1.6 1.4-1.2 1.3-0.5 0.5-0.8 0.3-1.2 0.4-0.1 0.4 0.4 0.1 0.2 0.4-0.7-0.3-1.6 0.7-2.2 1.4l-0.3-0.3c-0.3 0.8-1.1 0.9-2 1.5 1 0.5 2.7-1.6 3.2-1.3 0.1 0 0.9-0.8 1.2-1.1 1.3-1 2.9-1.8 3.5-2.9-0.1 0.2-0.7 0.2-0.4-0.1 0.3-0.1 0.6 0.1 0.9 0.1 1.6-2.2 3.6-4 5.1-6.6 0.1-0.1 0.2-0.3 0.3-0.5-0.2 0.6-0.5 1.1-0.7 1.7-1.6 1.1-2.2 4.3-4.1 4.8 0.1 1.1-0.9 1.4-1.4 2.7-0.3 0.4-0.5-0.3-0.8 0.2 0.3 1.4-2.5 1.3-2.4 2.6-0.2 0.1-0.5 0.2-0.7 0.4h-0.1c-0.1 0.1-0.1 0.1-0.2 0.2-0.5 0.3-0.9 0.6-1.3 0.9-1.4 0.8-3.3 1.4-4.8 2.2v-0.1c-0.4 0.2-0.9 0.1-0.8 0.5-0.3 0.2-0.6 0.4-0.9 0.6-0.1 0-0.1 0-0.2 0 0 0-0.1-0.1-0.2-0.1-0.2 0-0.2 0-0.3 0.1-1.3 0.1-3 0.7-3.5 1.1-0.5-0.3-2.8 0.2-3.2 0.4 0.2 0.3 0.8 0 1.3 0-0.3 0.1-0.6 0.2-0.7 0.4-0.1 0-0.1 0-0.2 0-0.1-0.3-0.4 0-0.5-0.1h0.1c-0.1-0.4-0.4-0.6-0.9-0.5 0 0.2 0 0.3-0.1 0.5 0.2 0 0.8-0.3 0.8 0-0.1 0-0.1 0.1 0 0.1-0.2 0.2-0.5 0.2-0.7 0.3-0.4 0-0.9 0-1.3 0-0.1-0.1-0.2-0.1-0.4-0.2-0.1 0.1-0.3 0.1-0.4 0.2-0.6 0-1.3 0.1-1.8 0.2 0-0.2 0-0.4-0.2-0.4-0.3 0.4-0.9-0.1-1.6 0.1-0.7-0.2 0.4 0.3 1.4 0.5-0.1 0.1-0.2 0.2-0.5 0.3M37.5 86.6c-1.4-1.3-4.3-1.9-4.8-2.9-0.8-0.1-2-1.6-3-1.8 0.5 0 0.1-0.3 0-0.5-0.2 0.2-0.4 0.3-0.6 0.3 0-0.8-0.8-1.3-1.5-1.8 0.5 0.3 0.9 0.5 1.5 0.6 0-0.2 0-0.4 0.2-0.4 0.7 0.7 1.5 1.4 2.4 2.1 1.2 1.1 7.4 3.9 8.5 4.4 0 0-0.2 0.4-0.1 0.4 0.5 0.3 0.9-0.3 1 0.4-1.6 0.2-2.2-0.9-3.6-0.8M83.6 63.4v0.1 0c-0.1 0 0-0.1 0-0.1M43.2 17.1c-0.1 0.1-0.2 0.1-0.2 0.1 0-0.1 0.1-0.1 0.2-0.1M41.3 17.6c0 0.1 0 0.1 0 0 0 0.1 0 0.1 0 0 0 0.1 0 0 0 0M34.7 19.7v0c0.1-0.1 0.1-0.1 0.2-0.1-0.1 0-0.2 0.1-0.2 0.1M50.7 16.4c-0.2 0-0.3 0-0.4-0.1 0.1 0 0.2 0 0.3 0h0.1c0 0 0 0 0 0.1M52.5 16.6c-0.1-0.1-0.4-0.2-0.7-0.2 0-0.1 0.1-0.2 0.1-0.2 0.1 0 0.2 0 0.3 0 0 0 0.1 0 0.1 0.1 0 0 0 0 0-0.1 0.1 0 0.1 0 0.2 0 0.1 0.2 0.2 0.3 0 0.4M55.8 16.9c-0.5 0.1-0.8-0.1-1.3-0.4 0.3 0 0.7 0.1 1 0.2 0.1 0 0.2 0.1 0.3 0.2M91.4 31.1c-0.2 0.1-0.3 0.1-0.5-0.3-1.6-3.4-4.5-8.3-8.7-12.4-4.1-4.2-9.6-7.6-14.6-9.4 0.3 0.1 0.7 0.3 0.5 0.5-4.4-1.7-8.6-2.7-12.6-3.1-10.8-1.7-22.1 0.6-30.8 6.2 0.1 0.2 0.1 0.3-0.2 0.5-3.2 2-7.7 5.5-11.3 10.1-3.6 4.6-6.4 10.4-7.6 15.6 0.1-0.3 0.2-0.8 0.4-0.6-2.6 10.3-1.9 19.1 1.7 26.7 0.2-0.2-0.5-1.2 0.1-1.1 0.4 1.1 0.9 2.3 1.5 3.4 0.7 1.6 1.5 3.7 2.6 4.2-2.8-5.5-4.7-11.8-4.9-17.4 0.4 0.8 0.3 2.5 0.9 3.2 0.2-3.8-0.7-8.9 0.6-12.5-0.3 1.9-0.5 4.5-0.3 7.1 0 1.9 0.9 7.2 1.5 7.7-0.1-0.1-0.1-0.6 0-0.6 0.3 0.6-0.4 0.9 0.1 1 0-0.2 0.1-0.2 0.2-0.2 1 2.2 2.3 5.6 3.3 7.3 1.2 2.2 2.8 4.2 4.6 6 0 0.1 0.1 0.1 0.1 0.2 0.2 0.5 0.9 1.1 1.1 1.5 0.1 0.2-0.1 0.5 0 0.7 1.5 2.8 3.7 5.6 6.4 7.8 1.7 2 4.4 4.1 7.7 5.9 3.2 1.7 6.9 3.1 10.3 3.9 2.4 0.6 5.3 0.7 7.1 1.1 2.4 0.5 6.6-0.2 8.7-0.6 12.6-1.9 25.1-10.5 31.4-22.9 6.5-12.5 6.3-27.8 0.7-39.5" fill="#ffdc00" fill-rule="nonzero" stroke="none" stroke-width="1" stroke-linecap="butt" stroke-linejoin="miter" stroke-miterlimit="10" stroke-dasharray="" stroke-dashoffset="0" font-family="none" font-weight="none" font-size="none" text-anchor="none" style="mix-blend-mode: normal" data-fill-palette-color="tertiary"></path></g><g transform="matrix(1,0,0,1,80,129.10286300781138)"><svg viewBox="0 0 160 101.79427398437724" height="101.79427398437724" width="160"><g><svg viewBox="0 0 160 101.79427398437724" height="101.79427398437724" width="160"><g transform="matrix(1,0,0,1,0,66.92553975733824)"><svg viewBox="0 0 160 34.868734227039006" height="34.868734227039006" width="160"><g><svg viewBox="0 0 160 34.868734227039006" height="34.868734227039006" width="160"><g><svg viewBox="0 0 160 34.868734227039006" height="34.868734227039006" width="160"><g transform="matrix(1,0,0,1,0,0)"><svg width="160" viewBox="0.9339202422759776 -35.325509999999994 217.32939975772405 47.36251" height="34.868734227039006" data-palette-color="#ffdc00"><path d="M18.037 11.009c-4.601 0.889-8.877 0.83-12.827-0.179v0l-0.848-4.389c4.02 1.233 8.318 1.407 12.893 0.522v0c2.631-0.509 4.451-1.438 5.461-2.787 1.01-1.343 1.34-2.921 0.989-4.733v0c-0.332-1.715-1.143-2.892-2.435-3.532-1.292-0.64-3.095-1.065-5.41-1.277v0l-3.415-0.277c-1.943-0.181-3.634-0.496-5.071-0.944-1.438-0.449-2.719-1.247-3.844-2.394-1.131-1.146-1.903-2.783-2.314-4.91v0c-0.657-3.397-0.165-6.178 1.473-8.342 1.646-2.165 4.291-3.6 7.938-4.304v0c2.127-0.411 4.041-0.574 5.741-0.489 1.694 0.087 3.491 0.357 5.392 0.811v0l0.828 4.281c-3.577-1.115-7.302-1.298-11.178-0.548v0c-2.35 0.454-3.959 1.332-4.827 2.634-0.862 1.301-1.109 2.903-0.741 4.808v0c0.364 1.743 1.143 2.926 2.336 3.551 1.194 0.625 2.945 1.043 5.254 1.256v0l3.466 0.277c2.041 0.162 3.805 0.47 5.291 0.922 1.486 0.453 2.782 1.272 3.887 2.457 1.1 1.193 1.858 2.866 2.274 5.02v0c0.576 3.155-0.046 5.855-1.867 8.101-1.821 2.24-4.637 3.728-8.446 4.465zM61.459 3.989l-5.248-10.155-15.216 1.871-2.592 11.119-4.814 0.592 9.177-38.608 5.201-0.64 18.306 35.229zM42.068-8.679l12.04-1.48-8.025-15.527zM93.122 1.845l-10.353-14.985-7.117 0.421 0.919 15.543-4.701 0.278-2.173-36.705 12.828-0.759c8.006-0.474 12.219 2.84 12.639 9.94v0c0.166 2.808-0.368 5.117-1.603 6.927-1.236 1.803-3.179 3.043-5.831 3.721v0l10.773 15.3zM74.643-29.759l0.765 12.928 8.126-0.481c4.778-0.283 7.058-2.558 6.839-6.826v0c-0.134-2.256-0.827-3.875-2.081-4.856-1.26-0.974-3.101-1.389-5.523-1.246v0zM129.29 2.069l-3.821-10.774-15.328-0.213-4.079 10.664-4.849-0.067 14.335-37.005 5.239 0.073 13.353 37.389zM111.799-13.115l12.129 0.168-5.842-16.473zM166.111-32.231l-0.326 4.207-11.027-0.854-2.514 32.453-4.735-0.367 2.513-32.453-11.027-0.854 0.326-4.207zM197.601-27.891l4.665 0.65-5.073 36.418-4.665-0.65 2.255-16.193-18.343-2.555-2.255 16.193-4.665-0.65 5.073-36.418 4.665 0.65-2.23 16.005 18.343 2.556zM206.674 11.145l6.965-36.105 4.624 0.893-6.964 36.104z" opacity="1" transform="matrix(1,0,0,1,0,0)" fill="#ffdc00" class="undefined-text-0" data-fill-palette-color="primary" id="text-0"></path></svg></g></svg></g></svg></g></svg></g><g transform="matrix(1,0,0,1,42.76904724120399,0)"><svg viewBox="0 0 74.46190551759202 56.41761197934911" height="56.41761197934911" width="74.46190551759202"><g><svg xmlns="http://www.w3.org/2000/svg" xmlns:xlink="http://www.w3.org/1999/xlink" version="1.1" x="0" y="0" viewBox="2.998 20.447 93.73199999999999 71.018" enable-background="new 0 0 100 100" xml:space="preserve" height="56.41761197934911" width="74.46190551759202" class="icon-icon-0" data-fill-palette-color="accent" id="icon-0"><path d="M25.521 69.28c-0.207-1.014-0.797-1.886-1.661-2.457-0.636-0.421-1.375-0.643-2.134-0.643-1.308 0-2.518 0.649-3.237 1.74l-1.775 2.686c-1.179 1.782-0.685 4.193 1.099 5.372 0.635 0.42 1.373 0.643 2.133 0.643 1.309 0 2.518-0.651 3.238-1.741l1.775-2.687C25.527 71.33 25.729 70.296 25.521 69.28z" fill="#ffdc00" data-fill-palette-color="accent"></path><path d="M34.356 72.657c-0.208-1.014-0.798-1.886-1.661-2.456-0.638-0.421-1.374-0.644-2.134-0.644-1.308 0-2.518 0.65-3.238 1.74l-3.173 4.989c-0.573 0.868-0.774 1.903-0.566 2.917 0.208 1.015 0.798 1.888 1.662 2.457 0.636 0.421 1.374 0.644 2.132 0.644 1.309 0 2.52-0.65 3.239-1.739l3.174-4.991C34.362 74.706 34.563 73.672 34.356 72.657z" fill="#ffdc00" data-fill-palette-color="accent"></path><path d="M42.499 77.234c-0.208-1.015-0.798-1.888-1.661-2.459-0.637-0.419-1.375-0.641-2.134-0.641-1.308 0-2.518 0.649-3.237 1.739l-3.175 4.989c-1.18 1.787-0.688 4.196 1.096 5.374 0.637 0.422 1.375 0.643 2.134 0.643 1.308 0 2.519-0.649 3.238-1.739l3.173-4.989C42.506 79.282 42.707 78.249 42.499 77.234z" fill="#ffdc00" data-fill-palette-color="accent"></path><path d="M49.751 83.151c-0.207-1.015-0.797-1.888-1.66-2.457-0.638-0.421-1.376-0.643-2.134-0.643-1.307 0-2.518 0.649-3.238 1.74l-1.83 2.861c-1.18 1.787-0.687 4.197 1.097 5.376 0.636 0.419 1.374 0.643 2.133 0.643 1.309 0 2.518-0.651 3.238-1.74l1.829-2.864C49.759 85.201 49.96 84.166 49.751 83.151z" fill="#ffdc00" data-fill-palette-color="accent"></path><path d="M82.726 66.683L48.408 43.273l-5.797 1.299-3.867 5.93c-0.884 1.338-2.368 2.137-3.971 2.137-0.931 0-1.836-0.272-2.616-0.789-1.059-0.698-1.781-1.769-2.037-3.013-0.254-1.244-0.008-2.513 0.691-3.57l4.38-6.861c1.253-2.234 2.781-4.108 4.546-5.573l-11.892 1.339L2.998 20.447v37.056l15.207 8.852c0.957-0.913 2.198-1.414 3.521-1.414 1.004 0 1.977 0.293 2.816 0.848 1.141 0.753 1.92 1.905 2.193 3.244 0.059 0.295 0.094 0.594 0.101 0.897 0.959-1.021 2.302-1.611 3.726-1.611 1.002 0 1.977 0.293 2.816 0.848 1.141 0.753 1.92 1.905 2.193 3.243 0.102 0.498 0.128 1 0.08 1.501 0.877-0.659 1.939-1.015 3.053-1.015 1.003 0 1.978 0.292 2.816 0.847 1.139 0.751 1.918 1.902 2.192 3.244 0.163 0.798 0.135 1.607-0.08 2.381 1.592-0.814 3.616-0.715 5.14 0.293 1.141 0.753 1.92 1.904 2.194 3.243 0.272 1.339 0.011 2.7-0.739 3.834l-0.019 0.03 0.194 0.123 5.483 3.777c0.689 0.523 1.498 0.797 2.35 0.797 1.226 0 2.352-0.56 3.091-1.533 1.292-1.703 0.959-4.139-0.741-5.431L54.341 80.2l0.657-1.081 8.891 6.122c0.689 0.523 1.498 0.796 2.35 0.796 1.225 0 2.353-0.559 3.091-1.532 1.293-1.703 0.959-4.14-0.742-5.432l-9.554-6.579 0.715-1.173 10.925 7.521c0.688 0.522 1.499 0.796 2.35 0.796 1.226 0 2.352-0.559 3.091-1.531 1.292-1.704 0.959-4.14-0.743-5.433l-11.588-7.979 0.719-1.179 13.423 9.243c0.688 0.522 1.499 0.796 2.351 0.796 0 0 0 0 0.001 0 1.224 0 2.351-0.558 3.089-1.531C84.631 70.354 84.351 68.008 82.726 66.683z" fill="#ffdc00" data-fill-palette-color="accent"></path><path d="M31.336 48.589c0.188 0.918 0.722 1.71 1.505 2.227 0.577 0.381 1.246 0.583 1.933 0.583 1.185 0 2.281-0.59 2.935-1.577l4.141-6.348 6.812-1.528 0.223 0.152 34.559 23.573 13.286-8.605V26.622l-19.942 6.686-0.148-0.016-23.363-2.724c-0.152-0.036-1.262-0.291-2.916-0.291-3.433 0-9.828 1.137-14.105 8.766l-4.402 6.897C31.33 46.73 31.147 47.67 31.336 48.589z" fill="#ffdc00" data-fill-palette-color="accent"></path></svg><g></g></g></svg></g><g></g></svg></g></svg></g></svg></g><defs></defs></svg><rect width="320" height="360" fill="none" stroke="none" visibility="hidden"></rect></g></svg></g></svg>